<svg width="125" height="77" viewBox="0 0 125 77" fill="none" xmlns="http://www.w3.org/2000/svg">
<path d="M65.0005 36.112L65.9607 34.9596L65.8523 34.8693L65.7289 34.8007L65.0005 36.112ZM33.0005 65.6118L32.0914 66.805L32.139 66.8412L32.1893 66.8736L33.0005 65.6118ZM47 39.6118L45.507 39.7563L45.5115 39.8027L45.5188 39.8488L47 39.6118ZM4.58047 36.5967C4.84817 37.3807 5.70073 37.7992 6.48471 37.5315L19.2604 33.1691C20.0444 32.9014 20.463 32.0488 20.1953 31.2648C19.9276 30.4808 19.075 30.0623 18.291 30.33L6.93481 34.2077L3.0571 22.8515C2.7894 22.0675 1.93684 21.649 1.15286 21.9167C0.368878 22.1844 -0.0496516 23.037 0.218049 23.8209L4.58047 36.5967ZM63.7722 76.8982C67.8982 74.4226 73.1222 67.9436 75.0203 60.1546C76.9563 52.2104 75.4383 42.8576 65.9607 34.9596L64.0402 37.2643C72.5626 44.3663 73.7946 52.5135 72.1056 59.4443C70.3788 66.5303 65.6027 72.3013 62.2287 74.3257L63.7722 76.8982ZM65.7289 34.8007C60.681 31.9963 48.0431 29.948 35.9398 42.0513L38.0611 44.1726C49.1579 33.0759 60.3199 35.2276 64.272 37.4232L65.7289 34.8007ZM35.9398 42.0513C29.9604 48.0307 27.8238 53.3502 27.838 57.7168C27.8521 62.0703 30.0081 65.2177 32.0914 66.805L33.9095 64.4187C32.4928 63.3393 30.8488 61.0368 30.8379 57.707C30.8272 54.3903 32.4405 49.7932 38.0611 44.1726L35.9398 42.0513ZM32.1893 66.8736C33.3361 67.6108 34.5757 67.9113 35.8344 67.7927C37.0689 67.6764 38.2294 67.1669 39.2787 66.4369C41.3542 64.993 43.2112 62.5384 44.7044 59.6818C47.693 53.9644 49.5432 46.0128 48.4812 39.3748L45.5188 39.8488C46.4568 45.7111 44.807 53.0094 42.0457 58.292C40.664 60.9354 39.0835 62.9182 37.5655 63.9743C36.8179 64.4943 36.1426 64.7504 35.553 64.8059C34.9875 64.8592 34.4147 64.7378 33.8116 64.3501L32.1893 66.8736ZM48.493 39.4673C47.676 31.0245 40.2989 22.8149 31.4092 20.2939C26.904 19.0163 21.9523 19.1782 17.2217 21.535C12.4999 23.8875 8.13603 28.3569 4.6535 35.4509L7.3465 36.773C10.614 30.117 14.5626 26.2115 18.5595 24.2202C22.5477 22.2333 26.721 22.0827 30.5908 23.1801C38.4511 25.4091 44.824 32.6994 45.507 39.7563L48.493 39.4673Z" fill="#0F0BC7"/>
<path d="M61.338 17.18C60.746 17.18 60.206 17.076 59.718 16.868C59.23 16.66 58.81 16.362 58.458 15.974C58.106 15.582 57.834 15.11 57.642 14.558C57.454 14.002 57.36 13.376 57.36 12.68C57.36 11.76 57.524 10.964 57.852 10.292C58.18 9.62 58.642 9.102 59.238 8.738C59.834 8.37 60.534 8.186 61.338 8.186C62.306 8.186 63.086 8.412 63.678 8.864C64.27 9.312 64.678 9.926 64.902 10.706L63.822 10.928C63.642 10.404 63.346 9.986 62.934 9.674C62.522 9.362 62.008 9.206 61.392 9.206C60.748 9.202 60.212 9.346 59.784 9.638C59.36 9.926 59.04 10.332 58.824 10.856C58.608 11.38 58.498 11.988 58.494 12.68C58.49 13.368 58.596 13.972 58.812 14.492C59.028 15.012 59.35 15.42 59.778 15.716C60.21 16.008 60.748 16.156 61.392 16.16C61.948 16.164 62.416 16.058 62.796 15.842C63.176 15.626 63.47 15.314 63.678 14.906C63.886 14.498 64.012 14.008 64.056 13.436H62.22V12.554H65.184C65.196 12.634 65.202 12.73 65.202 12.842C65.206 12.95 65.208 13.024 65.208 13.064C65.208 13.852 65.06 14.558 64.764 15.182C64.472 15.802 64.038 16.29 63.462 16.646C62.89 17.002 62.182 17.18 61.338 17.18ZM68.8044 17.18C68.1684 17.18 67.6124 17.04 67.1364 16.76C66.6644 16.476 66.2964 16.082 66.0324 15.578C65.7684 15.07 65.6364 14.478 65.6364 13.802C65.6364 13.094 65.7664 12.482 66.0264 11.966C66.2864 11.446 66.6484 11.046 67.1124 10.766C67.5804 10.482 68.1284 10.34 68.7564 10.34C69.4084 10.34 69.9624 10.49 70.4184 10.79C70.8784 11.09 71.2224 11.518 71.4504 12.074C71.6824 12.63 71.7824 13.292 71.7504 14.06H70.6704V13.676C70.6584 12.88 70.4964 12.286 70.1844 11.894C69.8724 11.498 69.4084 11.3 68.7924 11.3C68.1324 11.3 67.6304 11.512 67.2864 11.936C66.9424 12.36 66.7704 12.968 66.7704 13.76C66.7704 14.524 66.9424 15.116 67.2864 15.536C67.6304 15.956 68.1204 16.166 68.7564 16.166C69.1844 16.166 69.5564 16.068 69.8724 15.872C70.1884 15.676 70.4364 15.394 70.6164 15.026L71.6424 15.38C71.3904 15.952 71.0104 16.396 70.5024 16.712C69.9984 17.024 69.4324 17.18 68.8044 17.18ZM66.4104 14.06V13.202H71.1984V14.06H66.4104ZM76.2943 17C75.9103 17.076 75.5303 17.106 75.1543 17.09C74.7823 17.078 74.4503 17.004 74.1583 16.868C73.8663 16.728 73.6443 16.512 73.4923 16.22C73.3643 15.964 73.2943 15.706 73.2823 15.446C73.2743 15.182 73.2703 14.884 73.2703 14.552V8.72H74.3383V14.504C74.3383 14.768 74.3403 14.994 74.3443 15.182C74.3523 15.37 74.3943 15.532 74.4703 15.668C74.6143 15.924 74.8423 16.074 75.1543 16.118C75.4703 16.162 75.8503 16.15 76.2943 16.082V17ZM71.9563 11.402V10.52H76.2943V11.402H71.9563ZM78.9522 16.994L78.9582 16.034L82.7922 12.584C83.1122 12.296 83.3262 12.024 83.4342 11.768C83.5462 11.508 83.6022 11.242 83.6022 10.97C83.6022 10.638 83.5262 10.338 83.3742 10.07C83.2222 9.802 83.0142 9.59 82.7502 9.434C82.4902 9.278 82.1942 9.2 81.8622 9.2C81.5182 9.2 81.2122 9.282 80.9442 9.446C80.6762 9.606 80.4642 9.82 80.3082 10.088C80.1562 10.356 80.0822 10.648 80.0862 10.964H78.9942C78.9942 10.42 79.1202 9.94 79.3722 9.524C79.6242 9.104 79.9662 8.776 80.3982 8.54C80.8342 8.3 81.3282 8.18 81.8802 8.18C82.4162 8.18 82.8962 8.304 83.3202 8.552C83.7442 8.796 84.0782 9.13 84.3222 9.554C84.5702 9.974 84.6942 10.45 84.6942 10.982C84.6942 11.358 84.6462 11.684 84.5502 11.96C84.4582 12.236 84.3142 12.492 84.1182 12.728C83.9222 12.96 83.6762 13.208 83.3802 13.472L80.1942 16.334L80.0562 15.974H84.6942V16.994H78.9522ZM88.6357 17.18C88.0757 17.18 87.5757 17.054 87.1357 16.802C86.6997 16.546 86.3537 16.2 86.0977 15.764C85.8457 15.324 85.7197 14.824 85.7197 14.264V11.096C85.7197 10.536 85.8457 10.036 86.0977 9.596C86.3537 9.156 86.6997 8.81 87.1357 8.558C87.5757 8.306 88.0757 8.18 88.6357 8.18C89.1957 8.18 89.6957 8.306 90.1357 8.558C90.5757 8.81 90.9217 9.156 91.1737 9.596C91.4257 10.036 91.5517 10.536 91.5517 11.096V14.264C91.5517 14.824 91.4257 15.324 91.1737 15.764C90.9217 16.2 90.5757 16.546 90.1357 16.802C89.6957 17.054 89.1957 17.18 88.6357 17.18ZM88.6357 16.154C88.9757 16.154 89.2837 16.072 89.5597 15.908C89.8357 15.744 90.0557 15.524 90.2197 15.248C90.3837 14.968 90.4657 14.66 90.4657 14.324V11.03C90.4657 10.69 90.3837 10.382 90.2197 10.106C90.0557 9.83 89.8357 9.61 89.5597 9.446C89.2837 9.282 88.9757 9.2 88.6357 9.2C88.2997 9.2 87.9917 9.282 87.7117 9.446C87.4357 9.61 87.2157 9.83 87.0517 10.106C86.8877 10.382 86.8057 10.69 86.8057 11.03V14.324C86.8057 14.66 86.8877 14.968 87.0517 15.248C87.2157 15.524 87.4357 15.744 87.7117 15.908C87.9917 16.072 88.2997 16.154 88.6357 16.154ZM93.7814 17L93.0614 16.28L100.993 8.36L101.713 9.08L93.7814 17ZM99.9134 17.18C99.5174 17.18 99.1554 17.084 98.8274 16.892C98.5034 16.696 98.2434 16.436 98.0474 16.112C97.8514 15.784 97.7534 15.42 97.7534 15.02C97.7534 14.628 97.8534 14.268 98.0534 13.94C98.2534 13.612 98.5174 13.35 98.8454 13.154C99.1734 12.958 99.5294 12.86 99.9134 12.86C100.309 12.86 100.671 12.958 100.999 13.154C101.327 13.346 101.587 13.606 101.779 13.934C101.975 14.258 102.073 14.62 102.073 15.02C102.073 15.42 101.975 15.784 101.779 16.112C101.587 16.436 101.327 16.696 100.999 16.892C100.671 17.084 100.309 17.18 99.9134 17.18ZM99.9134 16.238C100.133 16.238 100.335 16.182 100.519 16.07C100.707 15.958 100.855 15.81 100.963 15.626C101.075 15.442 101.131 15.24 101.131 15.02C101.131 14.8 101.075 14.598 100.963 14.414C100.855 14.226 100.707 14.078 100.519 13.97C100.335 13.858 100.133 13.802 99.9134 13.802C99.6934 13.802 99.4914 13.858 99.3074 13.97C99.1234 14.078 98.9754 14.226 98.8634 14.414C98.7514 14.598 98.6954 14.8 98.6954 15.02C98.6954 15.24 98.7514 15.442 98.8634 15.626C98.9754 15.81 99.1234 15.958 99.3074 16.07C99.4914 16.182 99.6934 16.238 99.9134 16.238ZM94.8614 12.5C94.4654 12.5 94.1034 12.404 93.7754 12.212C93.4474 12.016 93.1854 11.756 92.9894 11.432C92.7974 11.104 92.7014 10.74 92.7014 10.34C92.7014 9.948 92.8014 9.588 93.0014 9.26C93.2014 8.932 93.4654 8.67 93.7934 8.474C94.1214 8.278 94.4774 8.18 94.8614 8.18C95.2574 8.18 95.6174 8.278 95.9414 8.474C96.2694 8.666 96.5314 8.926 96.7274 9.254C96.9234 9.578 97.0214 9.94 97.0214 10.34C97.0214 10.74 96.9234 11.104 96.7274 11.432C96.5314 11.756 96.2694 12.016 95.9414 12.212C95.6174 12.404 95.2574 12.5 94.8614 12.5ZM94.8614 11.558C95.0814 11.558 95.2834 11.502 95.4674 11.39C95.6554 11.278 95.8034 11.13 95.9114 10.946C96.0234 10.762 96.0794 10.56 96.0794 10.34C96.0794 10.12 96.0234 9.918 95.9114 9.734C95.8034 9.546 95.6554 9.398 95.4674 9.29C95.2834 9.178 95.0814 9.122 94.8614 9.122C94.6414 9.122 94.4394 9.178 94.2554 9.29C94.0714 9.398 93.9234 9.546 93.8114 9.734C93.6994 9.918 93.6434 10.12 93.6434 10.34C93.6434 10.56 93.6994 10.762 93.8114 10.946C93.9234 11.13 94.0714 11.278 94.2554 11.39C94.4394 11.502 94.6414 11.558 94.8614 11.558ZM108.772 17.18C107.912 17.18 107.182 16.99 106.582 16.61C105.982 16.23 105.524 15.702 105.208 15.026C104.896 14.35 104.74 13.568 104.74 12.68C104.74 11.792 104.896 11.01 105.208 10.334C105.524 9.658 105.982 9.13 106.582 8.75C107.182 8.37 107.912 8.18 108.772 8.18C109.636 8.18 110.368 8.37 110.968 8.75C111.568 9.13 112.024 9.658 112.336 10.334C112.648 11.01 112.804 11.792 112.804 12.68C112.804 13.568 112.648 14.35 112.336 15.026C112.024 15.702 111.568 16.23 110.968 16.61C110.368 16.99 109.636 17.18 108.772 17.18ZM108.772 16.16C109.416 16.164 109.952 16.02 110.38 15.728C110.812 15.432 111.134 15.022 111.346 14.498C111.562 13.974 111.67 13.368 111.67 12.68C111.67 11.988 111.562 11.382 111.346 10.862C111.134 10.342 110.812 9.936 110.38 9.644C109.952 9.352 109.416 9.204 108.772 9.2C108.128 9.196 107.592 9.34 107.164 9.632C106.74 9.924 106.42 10.332 106.204 10.856C105.988 11.38 105.878 11.988 105.874 12.68C105.87 13.368 105.976 13.972 106.192 14.492C106.408 15.012 106.73 15.42 107.158 15.716C107.59 16.008 108.128 16.156 108.772 16.16ZM113.599 17V8.36H118.639V9.428H114.667V12.146H117.919V13.214H114.667V17H113.599ZM119.306 17V8.36H124.346V9.428H120.374V12.146H123.626V13.214H120.374V17H119.306Z" fill="black"/>
</svg>
