<svg width="22" height="19" viewBox="0 0 22 19" fill="none" xmlns="http://www.w3.org/2000/svg">
<g clip-path="url(#clip0_1_978)">
<path opacity="0.7" d="M19.6839 2.78125H1.51415C1.11257 2.78125 0.72744 2.94568 0.443483 3.23837C0.159526 3.53106 0 3.92804 0 4.34196V16.8277C0 17.2416 0.159526 17.6386 0.443483 17.9313C0.72744 18.224 1.11257 18.3884 1.51415 18.3884H19.6839C20.0855 18.3884 20.4706 18.224 20.7546 17.9313C21.0385 17.6386 21.198 17.2416 21.198 16.8277V4.34196C21.198 3.92804 21.0385 3.53106 20.7546 3.23837C20.4706 2.94568 20.0855 2.78125 19.6839 2.78125ZM18.0183 4.34196L10.599 9.63279L3.17971 4.34196H18.0183ZM1.51415 16.8277V5.05209L10.1675 11.2247C10.2942 11.3153 10.4448 11.3639 10.599 11.3639C10.7533 11.3639 10.9038 11.3153 11.0306 11.2247L19.6839 5.05209V16.8277H1.51415Z" fill="black"/>
</g>
<defs>
<clipPath id="clip0_1_978">
<rect width="21.198" height="19" fill="white"/>
</clipPath>
</defs>
</svg>
